<?xml version="1.0" encoding="UTF-8" standalone="no"?>
<!-- Created with Inkscape (http://www.inkscape.org/) -->

<svg
   version="1.1"
   id="svg2"
   width="299"
   height="251"
   viewBox="0 0 299 251"
   xmlns="http://www.w3.org/2000/svg"
   xmlns:svg="http://www.w3.org/2000/svg">
  <defs
     id="defs6" />
  <g
     id="g11749"
     transform="matrix(1.0315706,0,0,1.0315706,-0.67965595,-12.595847)">
    <path
       style="opacity:1;fill:#2d5ca0;fill-opacity:1;stroke:none;stroke-width:1;stroke-linejoin:round;stroke-dasharray:none;stroke-opacity:1"
       d="M 148.77627,38.346559 61.501176,189.00873 c 11.555329,-0.38529 20.556107,0.45692 39.886714,-8.52422 l 47.59792,-82.836987 22.6327,37.693077 c 4.4559,-9.16025 9.97004,-15.76285 24.40994,-17.15776 z"
       id="path3079" />
    <path
       id="path5922"
       style="opacity:1;fill:#2d5ca0;fill-opacity:1;stroke:none;stroke-linejoin:round"
       transform="scale(1,-1)"
       d="m 147.42915,-161.91278 a 6.1120129,6.1120129 0 0 1 -6.11201,6.11201 6.1120129,6.1120129 0 0 1 -6.11201,-6.11201 6.1120129,6.1120129 0 0 1 6.11201,-6.11201 6.1120129,6.1120129 0 0 1 6.11201,6.11201 z M 10.964581,-184.02715 c 47.952514,-33.10662 111.869289,3.41225 118.239669,13.63164 -4.63351,9.97394 -0.51097,18.76236 7.99033,21.43862 6.34311,2.09004 15.01675,-0.95701 16.97632,-9.58502 2.42006,-12.34972 -9.10947,-17.48523 -13.70573,-17.63223 -49.029168,-44.07444 -117.406521,-27.96848 -129.500589,-7.85301 z" />
    <path
       id="path6742"
       style="opacity:1;fill:#4994ce;fill-opacity:1;stroke:none;stroke-width:1;stroke-linejoin:round;stroke-dasharray:none;stroke-opacity:1"
       d="m 184.23298,157.09089 c -2.68108,-0.0547 -14.04759,-15.88088 -0.17437,-27.89267 7.07684,-5.89203 16.5325,-4.93553 22.8241,0.11749 8.17179,6.30619 11.43576,25.40581 -8.26081,31.67101 -12.54224,19.26492 -30.13453,33.47979 -51.56316,43.85832 -39.91806,19.33353 -74.615127,19.30587 -105.052542,3.482 25.11953,5.14389 48.927106,13.42775 103.941262,-16.22462 14.59417,-8.52063 27.84011,-20.36654 38.28552,-35.01153 z m 19.39599,-13.4743 c 0,-4.40515 -3.57108,-7.97622 -7.97623,-7.97622 -4.40515,0 -7.97623,3.57107 -7.97623,7.97622 0,4.40515 3.57108,7.97623 7.97623,7.97623 4.40515,0 7.97623,-3.57108 7.97623,-7.97623 z" />
    <path
       id="path5922-4-4"
       style="fill:#76cef0;fill-opacity:1;stroke:none;stroke-width:1;stroke-linejoin:round;stroke-dasharray:none"
       transform="scale(1,-1)"
       d="m 266.97434,-80.38224 c 0,5.426341 -4.39892,9.825259 -9.82526,9.825258 -5.42634,1e-6 -9.82526,-4.398917 -9.82526,-9.825258 0,-5.426341 4.39892,-9.82526 9.82526,-9.825259 5.42634,-10e-7 9.82526,4.398918 9.82526,9.825259 z M 97.199528,-226.10744 c 96.255442,1.13565 152.798412,103.70677 151.960082,123.98969 -12.66582,5.171431 -19.27275,19.747469 -11.19857,33.070524 8.69656,13.675369 27.70674,14.991281 38.07969,1.185361 9.83151,-15.086716 0.3586,-28.842285 -8.95508,-33.664895 -5.36925,-19.08349 -11.59676,-47.35069 -39.49651,-72.12849 l 25.78158,-43.26565 h -35.5608 l -13.3353,22.2255 c -57.50979,-40.92315 -79.69812,-36.65434 -107.275092,-31.41204 z" />
  </g>
</svg>
