<svg width="209" height="53" viewBox="0 0 209 53" fill="none" xmlns="http://www.w3.org/2000/svg">
<path d="M77.048 27.248C77.4427 27.248 77.7867 27.2 78.08 27.104C78.3733 27.0027 78.616 26.8613 78.808 26.68C79.0053 26.4933 79.152 26.2693 79.248 26.008C79.344 25.7413 79.392 25.4453 79.392 25.12C79.392 24.8107 79.344 24.5307 79.248 24.28C79.152 24.0293 79.008 23.816 78.816 23.64C78.624 23.464 78.3813 23.3307 78.088 23.24C77.7947 23.144 77.448 23.096 77.048 23.096H75.44V27.248H77.048ZM77.048 21.432C77.8213 21.432 78.4907 21.5227 79.056 21.704C79.6213 21.8853 80.088 22.1387 80.456 22.464C80.824 22.7893 81.096 23.1787 81.272 23.632C81.4533 24.0853 81.544 24.5813 81.544 25.12C81.544 25.68 81.4507 26.1947 81.264 26.664C81.0773 27.128 80.7973 27.528 80.424 27.864C80.0507 28.2 79.5813 28.4613 79.016 28.648C78.456 28.8347 77.8 28.928 77.048 28.928H75.44V33H73.288V21.432H77.048ZM89.2502 26.936C89.6556 26.936 90.0076 26.8853 90.3062 26.784C90.6102 26.6827 90.8582 26.544 91.0502 26.368C91.2476 26.1867 91.3942 25.9733 91.4902 25.728C91.5862 25.4827 91.6342 25.2133 91.6342 24.92C91.6342 24.3333 91.4396 23.8827 91.0502 23.568C90.6662 23.2533 90.0769 23.096 89.2822 23.096H87.9062V26.936H89.2502ZM94.7863 33H92.8422C92.4742 33 92.2076 32.856 92.0422 32.568L89.6102 28.864C89.5196 28.7253 89.4182 28.6267 89.3062 28.568C89.1996 28.5093 89.0396 28.48 88.8262 28.48H87.9062V33H85.7542V21.432H89.2822C90.0662 21.432 90.7382 21.5147 91.2982 21.68C91.8636 21.84 92.3249 22.0667 92.6823 22.36C93.0449 22.6533 93.3116 23.0053 93.4823 23.416C93.6529 23.8213 93.7382 24.2693 93.7382 24.76C93.7382 25.1493 93.6796 25.5173 93.5623 25.864C93.4502 26.2107 93.2849 26.5253 93.0662 26.808C92.8529 27.0907 92.5862 27.3387 92.2662 27.552C91.9516 27.7653 91.5916 27.9333 91.1862 28.056C91.3249 28.136 91.4529 28.232 91.5703 28.344C91.6876 28.4507 91.7942 28.5787 91.8902 28.728L94.7863 33ZM109.471 27.216C109.471 28.064 109.33 28.8507 109.047 29.576C108.77 30.296 108.375 30.92 107.863 31.448C107.351 31.976 106.735 32.3893 106.015 32.688C105.295 32.9813 104.495 33.128 103.615 33.128C102.741 33.128 101.943 32.9813 101.223 32.688C100.503 32.3893 99.8846 31.976 99.3672 31.448C98.8552 30.92 98.4579 30.296 98.1752 29.576C97.8926 28.8507 97.7512 28.064 97.7512 27.216C97.7512 26.368 97.8926 25.584 98.1752 24.864C98.4579 24.1387 98.8552 23.512 99.3672 22.984C99.8846 22.456 100.503 22.0453 101.223 21.752C101.943 21.4533 102.741 21.304 103.615 21.304C104.202 21.304 104.754 21.3733 105.271 21.512C105.789 21.6453 106.263 21.8373 106.695 22.088C107.127 22.3333 107.514 22.6347 107.855 22.992C108.202 23.344 108.495 23.7387 108.735 24.176C108.975 24.6133 109.157 25.088 109.279 25.6C109.407 26.112 109.471 26.6507 109.471 27.216ZM107.271 27.216C107.271 26.5813 107.186 26.0133 107.015 25.512C106.845 25.0053 106.602 24.576 106.287 24.224C105.973 23.872 105.589 23.6027 105.135 23.416C104.687 23.2293 104.181 23.136 103.615 23.136C103.05 23.136 102.541 23.2293 102.087 23.416C101.639 23.6027 101.255 23.872 100.935 24.224C100.621 24.576 100.378 25.0053 100.207 25.512C100.037 26.0133 99.9512 26.5813 99.9512 27.216C99.9512 27.8507 100.037 28.4213 100.207 28.928C100.378 29.4293 100.621 29.856 100.935 30.208C101.255 30.5547 101.639 30.8213 102.087 31.008C102.541 31.1947 103.05 31.288 103.615 31.288C104.181 31.288 104.687 31.1947 105.135 31.008C105.589 30.8213 105.973 30.5547 106.287 30.208C106.602 29.856 106.845 29.4293 107.015 28.928C107.186 28.4213 107.271 27.8507 107.271 27.216ZM126.465 21.432V33H124.569V25.528C124.569 25.2293 124.585 24.9067 124.617 24.56L121.121 31.128C120.956 31.4427 120.702 31.6 120.361 31.6H120.057C119.716 31.6 119.462 31.4427 119.297 31.128L115.761 24.536C115.777 24.712 115.79 24.8853 115.801 25.056C115.812 25.2267 115.817 25.384 115.817 25.528V33H113.921V21.432H115.545C115.641 21.432 115.724 21.4347 115.793 21.44C115.862 21.4453 115.924 21.4587 115.977 21.48C116.036 21.5013 116.086 21.536 116.129 21.584C116.177 21.632 116.222 21.696 116.265 21.776L119.729 28.2C119.82 28.3707 119.902 28.5467 119.977 28.728C120.057 28.9093 120.134 29.096 120.209 29.288C120.284 29.0907 120.361 28.9013 120.441 28.72C120.521 28.5333 120.606 28.3547 120.697 28.184L124.113 21.776C124.156 21.696 124.201 21.632 124.249 21.584C124.297 21.536 124.348 21.5013 124.401 21.48C124.46 21.4587 124.524 21.4453 124.593 21.44C124.662 21.4347 124.745 21.432 124.841 21.432H126.465ZM137.718 28.632L136.31 24.784C136.241 24.6133 136.169 24.4107 136.094 24.176C136.019 23.9413 135.945 23.688 135.87 23.416C135.801 23.688 135.729 23.944 135.654 24.184C135.579 24.4187 135.507 24.624 135.438 24.8L134.038 28.632H137.718ZM141.518 33H139.854C139.667 33 139.515 32.9547 139.398 32.864C139.281 32.768 139.193 32.6507 139.134 32.512L138.27 30.152H133.478L132.614 32.512C132.571 32.6347 132.489 32.7467 132.366 32.848C132.243 32.9493 132.091 33 131.91 33H130.23L134.782 21.432H136.974L141.518 33ZM155.028 21.432V33H153.924C153.753 33 153.609 32.9733 153.492 32.92C153.38 32.8613 153.27 32.7653 153.164 32.632L147.124 24.92C147.156 25.272 147.172 25.5973 147.172 25.896V33H145.276V21.432H146.404C146.494 21.432 146.572 21.4373 146.636 21.448C146.705 21.4533 146.764 21.4693 146.812 21.496C146.865 21.5173 146.916 21.552 146.964 21.6C147.012 21.6427 147.065 21.7013 147.124 21.776L153.188 29.52C153.172 29.3333 153.158 29.1493 153.148 28.968C153.137 28.7867 153.132 28.6187 153.132 28.464V21.432H155.028ZM166.276 28.632L164.868 24.784C164.798 24.6133 164.726 24.4107 164.652 24.176C164.577 23.9413 164.502 23.688 164.428 23.416C164.358 23.688 164.286 23.944 164.212 24.184C164.137 24.4187 164.065 24.624 163.996 24.8L162.596 28.632H166.276ZM170.076 33H168.412C168.225 33 168.073 32.9547 167.956 32.864C167.838 32.768 167.75 32.6507 167.692 32.512L166.828 30.152H162.036L161.172 32.512C161.129 32.6347 161.046 32.7467 160.924 32.848C160.801 32.9493 160.649 33 160.468 33H158.788L163.34 21.432H165.532L170.076 33ZM183.025 27.2V31.88C182.439 32.312 181.812 32.6293 181.145 32.832C180.484 33.0293 179.775 33.128 179.017 33.128C178.073 33.128 177.217 32.9813 176.449 32.688C175.687 32.3947 175.033 31.9867 174.489 31.464C173.951 30.9413 173.535 30.3173 173.241 29.592C172.948 28.8667 172.801 28.0747 172.801 27.216C172.801 26.3467 172.943 25.5493 173.225 24.824C173.508 24.0987 173.908 23.4747 174.425 22.952C174.948 22.4293 175.58 22.024 176.321 21.736C177.063 21.448 177.895 21.304 178.817 21.304C179.287 21.304 179.724 21.3413 180.129 21.416C180.54 21.4907 180.919 21.5947 181.265 21.728C181.617 21.856 181.937 22.0133 182.225 22.2C182.513 22.3867 182.777 22.592 183.017 22.816L182.401 23.792C182.305 23.9467 182.18 24.0427 182.025 24.08C181.871 24.112 181.703 24.072 181.521 23.96C181.345 23.8587 181.169 23.7573 180.993 23.656C180.817 23.5547 180.62 23.4667 180.401 23.392C180.188 23.3173 179.945 23.256 179.673 23.208C179.407 23.16 179.097 23.136 178.745 23.136C178.175 23.136 177.657 23.232 177.193 23.424C176.735 23.616 176.343 23.8907 176.017 24.248C175.692 24.6053 175.441 25.0347 175.265 25.536C175.089 26.0373 175.001 26.5973 175.001 27.216C175.001 27.8773 175.095 28.4693 175.281 28.992C175.473 29.5093 175.74 29.9493 176.081 30.312C176.428 30.6693 176.844 30.944 177.329 31.136C177.815 31.3227 178.356 31.416 178.953 31.416C179.38 31.416 179.761 31.3707 180.097 31.28C180.433 31.1893 180.761 31.0667 181.081 30.912V28.816H179.625C179.487 28.816 179.377 28.7787 179.297 28.704C179.223 28.624 179.185 28.528 179.185 28.416V27.2H183.025ZM189.819 23.144V26.352H193.867V28.008H189.819V31.28H194.955V33H187.659V21.432H194.955V23.144H189.819ZM202.918 26.936C203.323 26.936 203.675 26.8853 203.974 26.784C204.278 26.6827 204.526 26.544 204.718 26.368C204.915 26.1867 205.062 25.9733 205.158 25.728C205.254 25.4827 205.302 25.2133 205.302 24.92C205.302 24.3333 205.107 23.8827 204.718 23.568C204.334 23.2533 203.744 23.096 202.95 23.096H201.574V26.936H202.918ZM208.454 33H206.51C206.142 33 205.875 32.856 205.71 32.568L203.278 28.864C203.187 28.7253 203.086 28.6267 202.974 28.568C202.867 28.5093 202.707 28.48 202.494 28.48H201.574V33H199.422V21.432H202.95C203.734 21.432 204.406 21.5147 204.966 21.68C205.531 21.84 205.992 22.0667 206.35 22.36C206.712 22.6533 206.979 23.0053 207.15 23.416C207.32 23.8213 207.406 24.2693 207.406 24.76C207.406 25.1493 207.347 25.5173 207.23 25.864C207.118 26.2107 206.952 26.5253 206.734 26.808C206.52 27.0907 206.254 27.3387 205.934 27.552C205.619 27.7653 205.259 27.9333 204.854 28.056C204.992 28.136 205.12 28.232 205.238 28.344C205.355 28.4507 205.462 28.5787 205.558 28.728L208.454 33Z" fill="black"/>
<path d="M32.7049 5.69312L13.4342 38.5106C15.9857 38.4267 17.9731 38.6101 22.2414 36.6538L32.7512 18.6102L37.7486 26.8205C38.7325 24.8252 39.95 23.387 43.1384 23.0832L32.7049 5.69312Z" fill="#2D5CA0"/>
<path d="M32.4075 32.6085C32.4075 32.2554 32.2653 31.9168 32.0122 31.6671C31.7591 31.4174 31.4159 31.2772 31.0579 31.2772C30.7 31.2772 30.3567 31.4174 30.1037 31.6671C29.8506 31.9168 29.7084 32.2554 29.7084 32.6085C29.7084 32.9616 29.8506 33.3002 30.1037 33.5499C30.3567 33.7996 30.7 33.9398 31.0579 33.9398C31.4159 33.9398 31.7591 33.7996 32.0122 33.5499C32.2653 33.3002 32.4075 32.9616 32.4075 32.6085ZM2.27551 37.4255C12.8636 44.6368 26.9767 36.6822 28.3834 34.4562C27.3603 32.2837 28.2705 30.3694 30.1477 29.7864C31.5482 29.3312 33.4634 29.9949 33.8961 31.8742C34.4305 34.5643 31.8847 35.6829 30.8698 35.7149C20.044 45.3153 4.94594 41.8071 2.27551 37.4255Z" fill="#2D5CA0"/>
<path d="M40.5339 31.5581C39.9419 31.5462 37.4322 28.0989 40.4954 25.4825C42.058 24.1991 44.1459 24.4074 45.5351 25.5081C47.3395 26.8817 48.0602 31.042 43.7111 32.4067C40.9417 36.603 37.0572 39.6993 32.3257 41.96C23.5116 46.1713 15.8504 46.1652 9.12964 42.7185C14.6761 43.8389 19.933 45.6433 32.0803 39.1844C35.3028 37.3284 38.2275 34.7481 40.5339 31.5581ZM44.8167 28.6231C44.8167 27.6636 44.0281 26.8857 43.0555 26.8857C42.0828 26.8857 41.2943 27.6636 41.2943 28.6231C41.2943 29.5827 42.0828 30.3605 43.0555 30.3605C44.0281 30.3605 44.8167 29.5827 44.8167 28.6231Z" fill="#4994CE"/>
<path d="M58.8036 14.8495C58.8036 13.6675 57.8323 12.7093 56.6341 12.7093C55.4359 12.7093 54.4646 13.6675 54.4646 14.8495C54.4646 16.0314 55.4359 16.9896 56.6341 16.9896C57.8323 16.9896 58.8036 16.0314 58.8036 14.8495ZM21.3165 46.5916C42.5702 46.3442 55.0551 24.002 54.87 19.5839C52.0733 18.4575 50.6145 15.2825 52.3973 12.3805C54.3175 9.40167 58.5151 9.11503 60.8055 12.1223C62.9763 15.4085 60.8846 18.4047 58.8281 19.4552C57.6426 23.612 56.2675 29.7692 50.1071 35.1664L55.7998 44.5906H47.9478L45.0033 39.7494C32.3049 48.6633 27.4056 47.7335 21.3165 46.5916Z" fill="#76CEF0"/>
</svg>
